<?xml version="1.0" standalone="no"?>
<!DOCTYPE svg PUBLIC "-//W3C//DTD SVG 20010904//EN"
 "http://www.w3.org/TR/2001/REC-SVG-20010904/DTD/svg10.dtd">
<svg version="1.0" xmlns="http://www.w3.org/2000/svg"
 width="512.000000pt" height="512.000000pt" viewBox="0 0 512.000000 512.000000"
 preserveAspectRatio="xMidYMid meet">
<metadata>
Created by potrace 1.14, written by Peter Selinger 2001-2017
</metadata>
<g transform="translate(0.000000,512.000000) scale(0.100000,-0.100000)"
fill="#000000" stroke="none">
<path d="M1039 5118 c-1 -2 -2 -1154 -3 -2561 l-1 -2557 396 0 c309 0 398 3
401 13 2 6 3 342 3 745 -1 402 2 732 6 732 4 0 13 -10 22 -22 8 -13 25 -34 37
-48 12 -14 36 -42 53 -64 18 -21 37 -43 42 -50 11 -11 247 -295 275 -330 8
-10 20 -23 25 -30 6 -6 55 -65 110 -131 55 -66 107 -129 117 -140 9 -11 125
-150 258 -310 133 -160 256 -307 274 -328 l32 -37 495 2 495 3 -583 700 c-321
385 -589 707 -596 715 -266 319 -240 283 -219 306 28 32 75 87 112 134 37 46
138 167 155 186 6 6 26 30 45 54 19 24 52 64 74 89 21 25 45 55 55 66 35 43
117 140 126 151 6 6 26 30 45 54 19 24 75 91 123 149 95 114 99 118 167 201
25 30 57 68 71 85 15 16 54 64 88 105 34 41 70 84 79 95 10 11 51 61 92 110
41 50 77 92 80 95 13 13 80 99 80 104 0 3 -220 6 -488 6 -376 0 -492 -3 -503
-12 -9 -7 -80 -92 -160 -188 -79 -96 -153 -186 -165 -200 -12 -14 -92 -110
-179 -215 -86 -104 -173 -210 -194 -235 -21 -25 -87 -103 -146 -175 -59 -71
-117 -141 -128 -155 -12 -14 -77 -92 -145 -173 -67 -81 -124 -147 -125 -147
-2 0 -3 717 -2 1593 0 875 -1 1598 -3 1605 -3 9 -92 12 -398 12 -217 0 -394
-1 -395 -2z"/>
</g>
</svg>
