<svg width="1441" height="913" xmlns="http://www.w3.org/2000/svg" xmlns:xlink="http://www.w3.org/1999/xlink"><defs><path d="M0 9.831c0 5.429 4.4 9.831 9.828 9.831 5.428 0 9.828-4.402 9.828-9.831 0-5.429-4.4-9.831-9.828-9.831C4.4 0 0 4.402 0 9.831Z" id="a"/><path d="M0 9.831c0 5.429 4.4 9.831 9.828 9.831 5.428 0 9.828-4.402 9.828-9.831 0-5.429-4.4-9.831-9.828-9.831C4.4 0 0 4.402 0 9.831Z" id="c"/><path d="M0 9.831c0 5.429 4.4 9.831 9.828 9.831 5.428 0 9.828-4.402 9.828-9.831 0-5.429-4.4-9.831-9.828-9.831C4.4 0 0 4.402 0 9.831Z" id="e"/></defs><g fill="none" fill-rule="evenodd"><path fill="#FEFEFE" fill-rule="nonzero" d="M105.329 906.999H1435V106.056H105.329z"/><path stroke="black" stroke-width="12" d="M105.329 906.999H1435V106.055H105.329z"/><path fill="#FEFEFE" fill-rule="nonzero" d="M54.535 858.467h1329.672V57.523H54.535z"/><path stroke="black" stroke-width="12" d="M54.535 858.467h1329.671V57.523H54.535z"/><path fill="#FEFEFE" fill-rule="nonzero" d="M6 806.944h1329.671V6H6z"/><path stroke="black" stroke-width="12" fill="#000" d="M6 806.944h1329.671v-749H6z"/><path stroke="black" stroke-width="12" d="M6 58h1329.671V6H6z"/><path stroke="black" stroke-width="5" d="M1335.671 57.74H8.069"/><g transform="translate(23.586 24.626)"><mask id="b" fill="#fff"><use xlink:href="#a"/></mask><path fill="black" fill-rule="nonzero" mask="url(#b)" d="M-1 20.662h21.656V-1H-1z"/></g><g transform="translate(54.62 24.626)"><mask id="d" fill="#fff"><use xlink:href="#c"/></mask><path fill="black" fill-rule="nonzero" mask="url(#d)" d="M-1 20.662h21.656V-1H-1z"/></g><g transform="translate(85.655 24.626)"><mask id="f" fill="#fff"><use xlink:href="#e"/></mask><path fill="black" fill-rule="nonzero" mask="url(#f)" d="M-1 20.662h21.656V-1H-1z"/></g></g></svg>
