<?xml version="1.0" encoding="utf-8"?>
<!-- Generator: Adobe Illustrator 25.4.1, SVG Export Plug-In . SVG Version: 6.00 Build 0)  -->
<svg version="1.1" id="Calque_1" xmlns="http://www.w3.org/2000/svg" xmlns:xlink="http://www.w3.org/1999/xlink" x="0px" y="0px"
	 viewBox="0 0 1441 913" style="enable-background:new 0 0 1441 913;" xml:space="preserve">
<style type="text/css">
	.st0{fill:#FEFEFE;}
	.st1{fill:none;stroke:#000000;stroke-width:5;}
	.st2{fill-rule:evenodd;clip-rule:evenodd;stroke:#000000;stroke-width:5;}
	.st3{filter:url(#Adobe_OpacityMaskFilter);}
	.st4{fill-rule:evenodd;clip-rule:evenodd;fill:#FFFFFF;}
	.st5{mask:url(#b_00000174602842386979763530000007228628653821081740_);}
	.st6{filter:url(#Adobe_OpacityMaskFilter_00000076587686125183821770000017125003820162373532_);}
	.st7{mask:url(#d_00000116922871276961168970000016675405601434808993_);}
	.st8{filter:url(#Adobe_OpacityMaskFilter_00000030481129356963160140000014107820311482576275_);}
	.st9{mask:url(#f_00000145780429676301279860000014686986037649148343_);}
</style>
<g>
	<path class="st0" d="M105.3,907H1435V106.1H105.3V907z"/>
	<path class="st1" d="M105.3,907H1435V106.1H105.3V907z"/>
	<path class="st0" d="M54.5,858.5h1329.7V57.5H54.5V858.5z"/>
	<path class="st1" d="M54.5,858.5h1329.7V57.5H54.5V858.5z"/>
	<path class="st0" d="M6,806.9h1329.7V6H6V806.9z"/>
	<path class="st2" d="M6,806.9h1329.7v-749H6V806.9z"/>
	<path class="st1" d="M6,58h1329.7V6H6V58z"/>
	<path class="st1" d="M1335.7,57.7H8.1"/>
	<g transform="translate(23.586 24.626)">
		<defs>
			<filter id="Adobe_OpacityMaskFilter" filterUnits="userSpaceOnUse" x="-1" y="-1" width="21.7" height="21.7">
				<feColorMatrix  type="matrix" values="1 0 0 0 0  0 1 0 0 0  0 0 1 0 0  0 0 0 1 0"/>
			</filter>
		</defs>
		
			<mask maskUnits="userSpaceOnUse" x="-1" y="-1" width="21.7" height="21.7" id="b_00000174602842386979763530000007228628653821081740_">
			<g class="st3">
				<path id="a_00000088852079775745191990000004970763684854633349_" class="st4" d="M0,9.8c0,5.4,4.4,9.8,9.8,9.8s9.8-4.4,9.8-9.8
					S15.3,0,9.8,0S0,4.4,0,9.8z"/>
			</g>
		</mask>
		<path class="st5" d="M-1,20.7h21.7V-1H-1V20.7z"/>
	</g>
	<g transform="translate(54.62 24.626)">
		<defs>
			
				<filter id="Adobe_OpacityMaskFilter_00000145020128256316925210000002162889526259045564_" filterUnits="userSpaceOnUse" x="-1" y="-1" width="21.7" height="21.7">
				<feColorMatrix  type="matrix" values="1 0 0 0 0  0 1 0 0 0  0 0 1 0 0  0 0 0 1 0"/>
			</filter>
		</defs>
		
			<mask maskUnits="userSpaceOnUse" x="-1" y="-1" width="21.7" height="21.7" id="d_00000116922871276961168970000016675405601434808993_">
			<g style="filter:url(#Adobe_OpacityMaskFilter_00000145020128256316925210000002162889526259045564_);">
				<path id="c_00000065063162489599860440000013320566460384984767_" class="st4" d="M0,9.8c0,5.4,4.4,9.8,9.8,9.8s9.8-4.4,9.8-9.8
					S15.3,0,9.8,0S0,4.4,0,9.8z"/>
			</g>
		</mask>
		<path class="st7" d="M-1,20.7h21.7V-1H-1V20.7z"/>
	</g>
	<g transform="translate(85.655 24.626)">
		<defs>
			
				<filter id="Adobe_OpacityMaskFilter_00000162336924190251737020000012631869114917305775_" filterUnits="userSpaceOnUse" x="-1" y="-1" width="21.7" height="21.7">
				<feColorMatrix  type="matrix" values="1 0 0 0 0  0 1 0 0 0  0 0 1 0 0  0 0 0 1 0"/>
			</filter>
		</defs>
		
			<mask maskUnits="userSpaceOnUse" x="-1" y="-1" width="21.7" height="21.7" id="f_00000145780429676301279860000014686986037649148343_">
			<g style="filter:url(#Adobe_OpacityMaskFilter_00000162336924190251737020000012631869114917305775_);">
				<path id="e_00000000181730492802428230000011237785254353603251_" class="st4" d="M0,9.8c0,5.4,4.4,9.8,9.8,9.8s9.8-4.4,9.8-9.8
					S15.3,0,9.8,0S0,4.4,0,9.8z"/>
			</g>
		</mask>
		<path class="st9" d="M-1,20.7h21.7V-1H-1V20.7z"/>
	</g>
</g>
</svg>
