<svg xmlns="http://www.w3.org/2000/svg" width="100pt" height="100pt" viewBox="0 0 100 100"><path d="M79.883 10.156H20.117a20.117 20.117 0 0 0-14.219 5.898A20.116 20.116 0 0 0 0 30.274v39.46A20.14 20.14 0 0 0 5.898 83.95a20.142 20.142 0 0 0 14.219 5.895h59.766a20.117 20.117 0 0 0 14.219-5.899A20.116 20.116 0 0 0 100 69.727V30.26a20.138 20.138 0 0 0-5.898-14.21 20.142 20.142 0 0 0-14.219-5.895zm11.211 59.586c-.008 6.188-5.023 11.203-11.211 11.211H20.117C13.926 80.945 8.91 75.93 8.906 69.738V30.261v.004c.004-6.191 5.02-11.207 11.211-11.215h59.766c6.191.008 11.207 5.023 11.211 11.215z"/><path d="M35.309 69.531 69.141 50 35.309 30.469z"/></svg>
