<svg xmlns="http://www.w3.org/2000/svg" width="107.95" height="40.72" viewBox="0 0 107.95 40.72"><defs><style>.cls-1{fill:#ffffff}</style></defs><g id="Calque_2" data-name="Calque 2"><g id="Calque_1-2" data-name="Calque 1"><path class="cls-1" d="M11.33 11A10.34 10.34 0 0 1 22 21.37a19.62 19.62 0 0 1-.24 3.35H5.47c0 3.3 1.72 6 6 6 3.06 0 4.19-1.37 4.88-3h5.42c-.79 3.94-4.39 7.49-10.3 7.49C3.79 35.16 0 29.34 0 23.09 0 16.2 4.09 11 11.33 11Zm5.41 9.7c0-3.2-2.26-5.22-5.56-5.22-3.15 0-5.66 1.82-5.66 5.22ZM29.29 0a3.58 3.58 0 1 1-3.56 3.6A3.59 3.59 0 0 1 29.29 0Zm-2.66 34.56V11.62H32v22.94ZM37.84 34.56V.09h5.37v21.67l8.42-10.14h6.7l-9.55 11.47 9.55 11.47h-6.7l-8.42-10.09v10.09Z"/><path class="cls-1" d="M70.12 11a11.83 11.83 0 0 1 12.16 12.09 12.12 12.12 0 0 1-24.23 0A11.78 11.78 0 0 1 70.12 11Zm0 19.35c4.08 0 6.79-3.35 6.79-7.29s-2.71-7.26-6.79-7.26-6.7 3.35-6.7 7.29 2.58 7.29 6.7 7.29ZM86.21 34.56V11.62h5.37v3.2C93 12.31 95.66 11 99.06 11s5.57 1.18 6.9 3.1c1.13 1.72 1.47 3.64 1.47 6.79v13.67h-5.36V22.7c0-3.94-1.19-6.95-5-6.95s-5.51 3-5.51 7v11.81ZM47.16 38.26H.79v2.46h47.53l-1.16-2.46zM50.54 38.26l1.15 2.46h56.25v-2.46h-57.4z"/></g></g></svg>
