<svg width="80" height="31" xmlns="http://www.w3.org/2000/svg"><g fill="#000000" fill-rule="evenodd"><path d="M12.394 15.343c0-2.37-1.677-3.864-4.12-3.864-2.332 0-4.191 1.349-4.191 3.864h8.31Zm-4.01-7.181c4.41 0 7.874 3.317 7.874 7.655 0 .583 0 1.348-.183 2.478H4.047c0 2.443 1.276 4.41 4.446 4.41 2.26 0 3.099-1.02 3.61-2.222h4.009c-.583 2.916-3.244 5.54-7.62 5.54-5.685 0-8.492-4.301-8.492-8.93 0-5.103 3.026-8.931 8.384-8.931ZM19.711 25.585h3.973V8.599h-3.973v16.986ZM21.681 0a2.654 2.654 0 0 1 2.666 2.666c0 1.447-1.185 2.632-2.666 2.632a2.64 2.64 0 0 1-2.633-2.632C19.048 1.184 20.233 0 21.681 0ZM28.014 25.586V.07h3.973v16.038L38.22 8.6h4.958l-7.072 8.493 7.072 8.493H38.22l-6.233-7.473v7.473z"/><path d="M51.902 22.488c3.025 0 5.03-2.48 5.03-5.395 0-2.916-2.005-5.395-5.03-5.395-3.025 0-4.958 2.479-4.958 5.395 0 2.916 1.933 5.395 4.958 5.395m0-14.325c5.431 0 9.004 4.118 9.004 8.93 0 4.812-3.573 8.93-9.004 8.93-5.395 0-8.93-4.118-8.93-8.93 0-4.812 3.535-8.93 8.93-8.93M63.816 25.586V8.6h3.973v2.369c1.057-1.86 3.026-2.807 5.541-2.807 2.479 0 4.119.875 5.103 2.297.839 1.275 1.094 2.697 1.094 5.03v10.097h-3.973V16.8c0-2.916-.875-5.14-3.682-5.14-2.77 0-4.083 2.224-4.083 5.14v8.785h-3.973ZM34.912 28.319H.586v1.822h35.18zM37.409 28.319l.854 1.822h41.643v-1.822z"/></g></svg>
