<svg width="178" height="65" xmlns="http://www.w3.org/2000/svg" xmlns:xlink="http://www.w3.org/1999/xlink"><defs><path id="a" d="M0 63.94h177.34V.076H0z"/></defs><g transform="translate(.146 .729)" fill="none" fill-rule="evenodd"><path fill="#fff" d="M48.411.588v9.833h6.821V9.32h-5.513V5.918h5.1V4.815h-5.1V1.687h5.473V.588zM56.037.589v1.1h3.272v8.731h1.307V1.689h3.274v-1.1zM66.648.588l-3.834 9.833h1.347l1.098-2.963h4.153l1.072 2.963h1.445L68.093.588h-1.445Zm.688 1.183h.028L69 6.359h-3.33l1.665-4.588ZM70.851.589v1.1h3.273v8.731h1.307V1.689h3.273v-1.1z"/><path d="M85.458 9.32h2.171c.896 0 3.302-.249 3.302-3.87 0-2.342-.865-3.76-3.274-3.76h-2.2v7.63ZM84.152.587h3.368c3.025 0 4.718 1.514 4.718 4.683 0 3.29-1.445 5.15-4.718 5.15h-3.368V.588ZM94.098.588h6.784v1.1h-5.476v3.126h5.102v1.104h-5.102V9.32h5.518v1.101h-6.826zM106.864.588h6.448v1.1h-5.141v3.126h4.509v1.104h-4.509v4.503h-1.307zM119.057 5.119c1.22 0 2.268-.317 2.268-1.75 0-.963-.522-1.68-1.746-1.68h-3.248v3.43h2.726ZM115.025.588h4.621c1.844 0 2.986 1.005 2.986 2.576 0 1.184-.525 2.16-1.706 2.491v.028c1.14.22 1.374 1.062 1.469 2.024.082.964.028 2.038.58 2.714h-1.459c-.37-.4-.163-1.459-.357-2.425-.136-.962-.37-1.776-1.635-1.776h-3.193v4.2h-1.306V.589Z" fill="#fff"/><mask id="b" fill="#fff"><use xlink:href="#a"/></mask><path fill="#fff" mask="url(#b)" d="M124.763 10.42h1.307V.587h-1.307zM129.849 9.32h3.273c1.13 0 1.843-.69 1.843-1.764 0-1.281-1.03-1.638-2.131-1.638h-2.985V9.32Zm0-4.505h2.615c1.486 0 2.09-.537 2.09-1.57 0-1.363-.964-1.556-2.09-1.556h-2.615v3.126ZM128.542.587h3.565c.864 0 2.008 0 2.598.358a2.335 2.335 0 0 1 1.153 2.052c0 1.046-.55 1.831-1.455 2.205v.027c1.207.247 1.87 1.157 1.87 2.367 0 1.447-1.034 2.825-2.986 2.825h-4.745V.587ZM142.384 9.553c2.392 0 3.399-2.066 3.399-4.049 0-1.983-1.007-4.05-3.399-4.05-2.394 0-3.397 2.067-3.397 4.05 0 1.983 1.003 4.05 3.397 4.05m0-9.2c3.12 0 4.703 2.479 4.703 5.15 0 2.672-1.584 5.15-4.703 5.15-3.121 0-4.705-2.478-4.705-5.15 0-2.671 1.584-5.15 4.705-5.15M156.784 6.868c0 2.48-1.418 3.788-3.864 3.788-2.53 0-4.029-1.17-4.029-3.788V.588h1.304v6.28c0 1.735.99 2.685 2.725 2.685 1.65 0 2.556-.95 2.556-2.685V.588h1.308v6.28ZM163.17 5.119c1.22 0 2.268-.317 2.268-1.75 0-.963-.521-1.68-1.747-1.68h-3.246v3.43h2.725ZM159.137.588h4.623c1.843 0 2.985 1.005 2.985 2.576 0 1.184-.522 2.16-1.704 2.491v.028c1.138.22 1.375 1.062 1.471 2.024.082.964.028 2.038.576 2.714h-1.459c-.368-.4-.163-1.459-.356-2.425-.137-.962-.37-1.776-1.636-1.776h-3.192v4.2h-1.308V.589ZM176.17 9.195c-.76 1.032-1.994 1.46-3.15 1.46-2.931 0-4.676-2.396-4.676-4.959 0-2.864 1.569-5.342 4.675-5.342 2.144 0 3.85.963 4.224 3.264h-1.307c-.262-1.488-1.459-2.162-2.917-2.162-2.378 0-3.366 2.064-3.366 4.172 0 2.052 1.18 3.926 3.366 3.926 2.02 0 3.232-1.42 3.15-3.21h-3.137V5.243h4.308v5.178h-.828l-.342-1.226ZM54.091 23.136c-.151-1.403-1.086-2.01-2.433-2.01-1.101 0-2.2.399-2.2 1.68 0 1.213 1.567 1.392 3.148 1.75 1.568.356 3.136.907 3.136 2.836 0 2.094-2.05 2.933-3.837 2.933-2.2 0-4.057-1.073-4.057-3.47h1.237c0 1.652 1.376 2.369 2.86 2.369 1.183 0 2.49-.371 2.49-1.79 0-1.35-1.567-1.584-3.135-1.928-1.568-.346-3.15-.8-3.15-2.603 0-1.997 1.775-2.879 3.564-2.879 2.006 0 3.532.95 3.615 3.112h-1.238ZM59.267 21.36h-3.271v-1.102h7.852v1.102h-3.274v8.732h-1.307zM65.63 26.029h3.33l-1.638-4.586h-.028l-1.663 4.586Zm.978-5.77h1.444l3.835 9.833h-1.444l-1.072-2.962h-4.154l-1.097 2.962h-1.348l3.836-9.834ZM74.809 26.029h3.327l-1.638-4.586h-.026l-1.663 4.586Zm.976-5.77h1.444l3.838 9.833H79.62l-1.072-2.962h-4.154l-1.1 2.962h-1.347l3.837-9.834ZM83.261 21.36h-3.273v-1.102h7.85v1.102h-3.271v8.732h-1.306zM93.289 20.258h6.451v1.101h-5.144v3.126h4.513v1.103h-4.513v4.503h-1.307zM105.481 24.789c1.221 0 2.268-.317 2.268-1.75 0-.962-.522-1.68-1.746-1.68h-3.247v3.43h2.725Zm-4.032-4.531h4.622c1.843 0 2.986 1.006 2.986 2.576 0 1.184-.526 2.16-1.706 2.491v.029c1.14.22 1.373 1.06 1.469 2.025.082.965.028 2.038.58 2.712h-1.46c-.37-.398-.163-1.459-.356-2.423-.136-.964-.37-1.778-1.636-1.778h-3.192v4.2h-1.307v-9.832ZM111.136 20.258h6.78v1.101h-5.472v3.126h5.102v1.103h-5.102v3.402h5.515v1.101h-6.823zM119.862 30.092h1.304v-9.833h-1.304zM124.945 28.99h3.273c1.127 0 1.843-.689 1.843-1.764 0-1.279-1.033-1.638-2.135-1.638h-2.98v3.401Zm0-4.505h2.611c1.487 0 2.09-.535 2.09-1.568 0-1.364-.96-1.557-2.09-1.557h-2.61v3.125Zm-1.304-4.227h3.558c.865 0 2.008 0 2.599.359a2.33 2.33 0 0 1 1.156 2.052c0 1.047-.55 1.83-1.458 2.203v.026c1.21.248 1.869 1.158 1.869 2.37 0 1.447-1.03 2.823-2.982 2.823h-4.742v-9.833ZM141.163 26.538c0 2.48-1.418 3.787-3.864 3.787-2.53 0-4.028-1.17-4.028-3.787v-6.28h1.307v6.28c0 1.736.987 2.686 2.721 2.686 1.65 0 2.557-.95 2.557-2.686v-6.28h1.307v6.28ZM147.546 24.789c1.225 0 2.271-.317 2.271-1.75 0-.962-.524-1.68-1.745-1.68h-3.248v3.43h2.722Zm-4.026-4.531h4.62c1.843 0 2.981 1.006 2.981 2.576 0 1.184-.522 2.16-1.706 2.491v.029c1.144.22 1.377 1.06 1.473 2.025.082.965.028 2.038.576 2.712h-1.455c-.374-.398-.164-1.459-.36-2.423-.137-.964-.37-1.778-1.632-1.778h-3.193v4.2h-1.304v-9.832ZM160.549 28.866c-.76 1.033-1.995 1.46-3.151 1.46-2.927 0-4.674-2.396-4.674-4.959 0-2.864 1.568-5.343 4.674-5.343 2.145 0 3.85.964 4.223 3.265h-1.306c-.26-1.488-1.459-2.162-2.917-2.162-2.38 0-3.37 2.064-3.37 4.172 0 2.052 1.184 3.926 3.37 3.926 2.02 0 3.233-1.42 3.15-3.21h-3.136v-1.103h4.306v5.179h-.828l-.341-1.225ZM0 61.346v2.595c7.787-1.988 16.005-6.676 20.476-10.876a38.608 38.608 0 0 0 7.736-10.051c.024-.05.127-.217.158-.264 1.854-3.574 3.31-7.718 4.333-12.592C35.488 16.689 31.35 3.03 30.377 1.38 29.554-.016 28.022.072 26.963.08l-.74.002H0V30.99h20.216c.102 0 .488.02.587.053.669.114 1.18.593 1.294 1.201.043.186.065.39.05.597-.164 6.045-3.27 18.227-20.57 26.005L0 59.523v1.823Z"/></g></svg>
