<svg width="175" height="75" xmlns="http://www.w3.org/2000/svg" xmlns:xlink="http://www.w3.org/1999/xlink"><defs><path id="a" d="M0 74.986h174.36V0H0z"/></defs><g fill="none" fill-rule="evenodd"><path fill="#fff" d="M2.163 43.68v1.979h2.889v1.03H2.163v1.928h2.889v1.03H1.014v-6.996h4.038v1.029zM9.472 46.69c-.06-.51-.36-.85-1.1-.85-.84 0-1.25.69-1.25 1.478 0 .8.38 1.48 1.32 1.48.64 0 .9-.28 1.04-.75h1.09c-.15.97-.86 1.72-2.21 1.72-1.518 0-2.328-1.18-2.328-2.45 0-1.259.81-2.448 2.318-2.448 1.52 0 2.14.92 2.209 1.82H9.47ZM15.13 47.318c0-.799-.54-1.479-1.379-1.479-.82 0-1.358.68-1.358 1.479 0 .8.538 1.479 1.358 1.479.84 0 1.38-.679 1.38-1.479m-3.829 0c0-1.319.97-2.448 2.45-2.448 1.498 0 2.467 1.129 2.467 2.448s-.969 2.449-2.468 2.449c-1.478 0-2.448-1.13-2.448-2.449"/><mask id="b" fill="#fff"><use xlink:href="#a"/></mask><path fill="#fff" mask="url(#b)" d="M17.286 49.647h1.089v-6.996h-1.089zM20.535 46.839h2.319c0-.71-.47-1.15-1.13-1.15-.67 0-1.19.39-1.19 1.15Zm0 .81c.05.669.34 1.209 1.25 1.209.619 0 .859-.28.989-.61h1.099c-.13.8-.9 1.52-2.088 1.52-1.57 0-2.33-1.08-2.33-2.45 0-1.398.83-2.448 2.3-2.448 1.209 0 2.158.909 2.158 2.099 0 .16 0 .38-.05.68h-3.328ZM28.485 47.318c0 .8.54 1.479 1.378 1.479.82 0 1.36-.679 1.36-1.479 0-.799-.54-1.479-1.36-1.479-.838 0-1.378.68-1.378 1.479Zm0-1.698c.29-.47.9-.75 1.439-.75 1.419 0 2.389 1.129 2.389 2.448s-.97 2.449-2.39 2.449c-.538 0-1.148-.28-1.438-.75v2.969h-1.09V44.99h1.09v.63ZM36.326 45.999a1.62 1.62 0 0 0-.43-.05c-.929 0-1.439.53-1.439 1.69v2.008h-1.089V44.99h1.09v.749c.21-.43.82-.81 1.438-.81.17 0 .31.02.43.07v1ZM40.612 47.318c0-.799-.54-1.479-1.379-1.479-.82 0-1.359.68-1.359 1.479 0 .8.539 1.479 1.359 1.479.839 0 1.379-.679 1.379-1.479m-3.828 0c0-1.319.97-2.448 2.449-2.448 1.499 0 2.468 1.129 2.468 2.448s-.969 2.449-2.468 2.449c-1.479 0-2.449-1.13-2.449-2.449M45.455 43.63c-.15-.04-.31-.07-.479-.07-.34 0-.74 0-.74.73v.7h1.22v.91h-1.22v3.748h-1.09V45.9h-.949v-.91h.95v-.58c0-1.78 1.14-1.818 1.68-1.818.278 0 .508.06.628.119v.92ZM47.029 46.839h2.318c0-.71-.47-1.15-1.13-1.15-.669 0-1.188.39-1.188 1.15Zm0 .81c.05.669.34 1.209 1.25 1.209.618 0 .858-.28.988-.61h1.1c-.13.8-.9 1.52-2.088 1.52-1.57 0-2.33-1.08-2.33-2.45 0-1.398.83-2.448 2.3-2.448 1.209 0 2.157.909 2.157 2.099 0 .16 0 .38-.05.68h-3.328ZM54.956 48.348c0 .97-.84 1.42-1.86 1.42-.998 0-1.898-.59-1.898-1.69h1.06c0 .61.379.83.899.83.43 0 .759-.14.759-.54 0-.44-.47-.47-1.45-.85-.648-.25-1.108-.489-1.108-1.299 0-.88.8-1.35 1.749-1.35.99 0 1.779.67 1.779 1.58h-1.06c0-.44-.22-.72-.75-.72-.37 0-.668.18-.668.51 0 .4.429.45 1.279.78.649.25 1.269.48 1.269 1.33M59.485 48.348c0 .97-.839 1.42-1.859 1.42-.999 0-1.899-.59-1.899-1.69h1.06c0 .61.379.83.899.83.43 0 .759-.14.759-.54 0-.44-.469-.47-1.449-.85-.649-.25-1.109-.489-1.109-1.299 0-.88.8-1.35 1.749-1.35.99 0 1.779.67 1.779 1.58h-1.059c0-.44-.22-.72-.75-.72-.37 0-.669.18-.669.51 0 .4.429.45 1.279.78.649.25 1.269.48 1.269 1.33M60.572 49.647h1.089V44.99h-1.089v4.657Zm.54-7.166a.804.804 0 1 1 .011 1.61.804.804 0 0 1-.011-1.61ZM66.5 47.318c0-.799-.54-1.479-1.378-1.479-.82 0-1.36.68-1.36 1.479 0 .8.54 1.479 1.36 1.479.839 0 1.379-.679 1.379-1.479m-3.828 0c0-1.319.97-2.448 2.449-2.448 1.499 0 2.468 1.129 2.468 2.448s-.97 2.449-2.468 2.449c-1.48 0-2.45-1.13-2.45-2.449M68.646 44.99h1.09v.649c.29-.5.83-.77 1.52-.77.668 0 1.138.24 1.397.63.231.35.3.74.3 1.38v2.768h-1.089v-2.408c0-.8-.23-1.41-1.009-1.41-.76 0-1.12.61-1.12 1.41v2.408h-1.089V44.99ZM74.266 44.99h1.09v.649c.29-.5.829-.77 1.519-.77.669 0 1.139.24 1.399.63.23.35.3.74.3 1.38v2.768h-1.09v-2.408c0-.8-.23-1.41-1.01-1.41-.76 0-1.118.61-1.118 1.41v2.408h-1.09V44.99ZM80.678 46.839h2.319c0-.71-.47-1.15-1.13-1.15-.668 0-1.19.39-1.19 1.15Zm0 .81c.05.669.34 1.209 1.25 1.209.619 0 .859-.28.989-.61h1.1c-.13.8-.9 1.52-2.09 1.52-1.568 0-2.328-1.08-2.328-2.45 0-1.398.83-2.448 2.299-2.448 1.209 0 2.159.909 2.159 2.099 0 .16 0 .38-.051.68h-3.328ZM85.186 49.647h1.09v-6.996h-1.09zM87.622 49.647h1.09v-6.996h-1.09zM90.871 46.839h2.318c0-.71-.469-1.15-1.129-1.15-.669 0-1.189.39-1.189 1.15Zm0 .81c.05.669.34 1.209 1.25 1.209.62 0 .858-.28.988-.61h1.1c-.13.8-.9 1.52-2.089 1.52-1.569 0-2.328-1.08-2.328-2.45 0-1.398.83-2.448 2.3-2.448 1.208 0 2.157.909 2.157 2.099 0 .16 0 .38-.05.68h-3.328ZM98.48 46.839h2.32c0-.71-.47-1.15-1.13-1.15-.668 0-1.19.39-1.19 1.15Zm0 .81c.052.669.34 1.209 1.25 1.209.62 0 .86-.28.99-.61h1.1c-.13.8-.9 1.52-2.09 1.52-1.568 0-2.328-1.08-2.328-2.45 0-1.398.83-2.448 2.299-2.448 1.209 0 2.159.909 2.159 2.099 0 .16 0 .38-.051.68H98.48ZM102.98 44.99h1.09v.649c.29-.5.83-.77 1.519-.77.67 0 1.14.24 1.4.63.229.35.3.74.3 1.38v2.768h-1.09v-2.408c0-.8-.23-1.41-1.01-1.41-.76 0-1.12.61-1.12 1.41v2.408h-1.088V44.99ZM114.448 47.318c0-.799-.54-1.479-1.379-1.479-.82 0-1.359.68-1.359 1.479 0 .8.54 1.479 1.36 1.479.838 0 1.378-.679 1.378-1.479Zm1.09-2.328v4.657h-1.09v-.63c-.29.47-.899.75-1.439.75-1.419 0-2.389-1.13-2.389-2.449s.97-2.448 2.39-2.448c.54 0 1.148.28 1.438.75v-.63h1.09ZM119.859 45.999a1.62 1.62 0 0 0-.43-.05c-.93 0-1.44.53-1.44 1.69v2.008H116.9V44.99h1.09v.749c.21-.43.82-.81 1.439-.81.17 0 .31.02.43.07v1ZM123.463 49.647c-.17.03-.49.06-.81.06-.53 0-1.509-.07-1.509-1.639V45.9h-.789v-.909h.789v-1.409h1.09v1.41h1.069v.908h-1.069v1.92c0 .808.25.908.679.908.17 0 .44-.019.55-.039v.96ZM127.826 48.348c0 .97-.84 1.42-1.859 1.42-.999 0-1.899-.59-1.899-1.69h1.06c0 .61.38.83.9.83.43 0 .758-.14.758-.54 0-.44-.47-.47-1.449-.85-.65-.25-1.11-.489-1.11-1.299 0-.88.8-1.35 1.75-1.35.99 0 1.78.67 1.78 1.58h-1.06c0-.44-.22-.72-.75-.72-.37 0-.67.18-.67.51 0 .4.43.45 1.28.78.65.25 1.27.48 1.27 1.33M134.756 47.318c0-.799-.54-1.479-1.38-1.479-.819 0-1.359.68-1.359 1.479 0 .8.54 1.479 1.359 1.479.84 0 1.38-.679 1.38-1.479Zm1.089-2.328v4.657h-1.089v-.63c-.29.47-.899.75-1.439.75-1.419 0-2.389-1.13-2.389-2.449s.97-2.448 2.389-2.448c.54 0 1.149.28 1.439.75v-.63h1.089ZM138.298 47.318c0 .8.539 1.479 1.379 1.479.819 0 1.359-.679 1.359-1.479 0-.799-.54-1.479-1.359-1.479-.84 0-1.379.68-1.379 1.479Zm0-1.698c.289-.47.899-.75 1.438-.75 1.42 0 2.389 1.129 2.389 2.448s-.969 2.449-2.389 2.449c-.539 0-1.149-.28-1.438-.75v2.969h-1.09V44.99h1.09v.63ZM144.27 47.318c0 .8.54 1.479 1.38 1.479.819 0 1.359-.679 1.359-1.479 0-.799-.54-1.479-1.36-1.479-.84 0-1.378.68-1.378 1.479Zm0-1.698c.29-.47.9-.75 1.439-.75 1.42 0 2.389 1.129 2.389 2.448s-.97 2.449-2.39 2.449c-.538 0-1.148-.28-1.437-.75v2.969h-1.09V44.99h1.09v.63ZM149.164 49.647h1.09v-6.996h-1.09zM151.614 49.647h1.09V44.99h-1.09v4.657Zm.54-7.166a.804.804 0 1 1 .011 1.61.804.804 0 0 1-.011-1.61ZM154.824 47.318c0 .8.54 1.479 1.36 1.479.838 0 1.378-.679 1.378-1.479 0-.799-.54-1.479-1.379-1.479-.819 0-1.359.68-1.359 1.479Zm2.738-2.328h1.09v6.996h-1.09v-2.969c-.29.47-.899.75-1.439.75-1.419 0-2.389-1.13-2.389-2.449s.97-2.448 2.39-2.448c.54 0 1.148.28 1.438.75v-.63ZM164.272 44.99v4.657h-1.09v-.65c-.29.5-.83.77-1.518.77-.67 0-1.14-.24-1.4-.63-.23-.35-.3-.74-.3-1.378v-2.77h1.09v2.409c0 .8.23 1.409 1.009 1.409.76 0 1.12-.61 1.12-1.41V44.99h1.089ZM166.433 46.839h2.318c0-.71-.47-1.15-1.13-1.15-.668 0-1.188.39-1.188 1.15Zm.159-2.14-.52-.849 2.49-1.369.519.85-2.49 1.368Zm-.16 2.95c.05.669.34 1.209 1.25 1.209.62 0 .859-.28.989-.61h1.1c-.13.8-.9 1.52-2.09 1.52-1.568 0-2.328-1.08-2.328-2.45 0-1.398.83-2.448 2.299-2.448 1.21 0 2.159.909 2.159 2.099 0 .16 0 .38-.05.68h-3.328ZM174.36 48.348c0 .97-.84 1.42-1.859 1.42-.999 0-1.9-.59-1.9-1.69h1.06c0 .61.38.83.9.83.43 0 .76-.14.76-.54 0-.44-.47-.47-1.45-.85-.65-.25-1.11-.489-1.11-1.299 0-.88.8-1.35 1.75-1.35.99 0 1.78.67 1.78 1.58h-1.06c0-.44-.22-.72-.75-.72-.37 0-.67.18-.67.51 0 .4.43.45 1.28.78.65.25 1.27.48 1.27 1.33M2.163 58.119v1.999h1.299c.94 0 1.1-.58 1.1-.99 0-.35-.21-1.01-1.09-1.01h-1.31Zm1.239-1.03c.94 0 1.1-.61 1.1-.95 0-.35-.16-.958-1.1-.958h-1.24v1.909h1.24Zm-2.388-2.938h2.388c1.919 0 2.249 1.159 2.249 1.889 0 .88-.65 1.42-1.23 1.55.45 0 1.29.519 1.29 1.579 0 .729-.38 1.978-2.298 1.978h-2.4V54.15ZM7.724 58.339h2.319c0-.71-.47-1.15-1.13-1.15-.67 0-1.19.39-1.19 1.15Zm0 .81c.05.669.34 1.209 1.25 1.209.619 0 .859-.28.989-.61h1.099c-.13.8-.9 1.52-2.088 1.52-1.57 0-2.33-1.08-2.33-2.45 0-1.398.83-2.448 2.3-2.448 1.209 0 2.158.909 2.158 2.099 0 .16 0 .38-.05.68H7.724ZM15.182 57.499a1.62 1.62 0 0 0-.43-.05c-.93 0-1.44.53-1.44 1.69v2.008h-1.088V56.49h1.089v.749c.21-.43.82-.81 1.439-.81.17 0 .31.02.43.07v1ZM20.216 56.49v4.657h-1.089v-.65c-.29.5-.83.77-1.519.77-.67 0-1.14-.24-1.399-.63-.23-.35-.3-.74-.3-1.378v-2.77h1.09v2.409c0 .8.23 1.409 1.01 1.409.758 0 1.118-.61 1.118-1.41V56.49h1.09ZM24.307 55.13c-.15-.04-.31-.07-.479-.07-.34 0-.74 0-.74.73v.7h1.22v.91h-1.22v3.748h-1.09V57.4h-.949v-.91H22v-.58c0-1.78 1.14-1.818 1.68-1.818.278 0 .508.06.628.119v.92ZM28.582 59.848c0 .97-.839 1.42-1.859 1.42-.999 0-1.899-.59-1.899-1.69h1.06c0 .61.38.83.9.83.43 0 .758-.14.758-.54 0-.44-.469-.47-1.449-.85-.649-.25-1.109-.489-1.109-1.299 0-.88.8-1.35 1.75-1.35.99 0 1.778.67 1.778 1.58h-1.059c0-.44-.22-.72-.75-.72-.37 0-.669.18-.669.51 0 .4.43.45 1.28.78.648.25 1.268.48 1.268 1.33M32.453 55.13c-.15-.04-.31-.07-.479-.07-.34 0-.74 0-.74.73v.7h1.22v.91h-1.22v3.748h-1.09V57.4h-.949v-.91h.95v-.58c0-1.78 1.14-1.818 1.68-1.818.278 0 .508.06.628.119v.92ZM36.734 58.818c0-.799-.54-1.479-1.379-1.479-.82 0-1.358.68-1.358 1.479 0 .8.538 1.479 1.358 1.479.84 0 1.38-.679 1.38-1.479Zm1.09-2.328v4.657h-1.09v-.63c-.29.47-.898.75-1.439.75-1.419 0-2.389-1.13-2.389-2.449s.97-2.448 2.39-2.448c.54 0 1.148.28 1.438.75v-.63h1.09ZM42.33 58.19c-.06-.51-.36-.85-1.1-.85-.84 0-1.25.69-1.25 1.478 0 .8.38 1.48 1.32 1.48.64 0 .9-.28 1.04-.75h1.09c-.15.97-.86 1.72-2.21 1.72-1.519 0-2.329-1.18-2.329-2.45 0-1.259.81-2.448 2.318-2.448 1.52 0 2.14.92 2.21 1.82h-1.09ZM44.495 54.151h1.089v2.988c.29-.5.83-.769 1.52-.769.669 0 1.139.24 1.399.63.23.349.3.739.3 1.379v2.768h-1.09v-2.408c0-.8-.23-1.41-1.01-1.41-.76 0-1.12.61-1.12 1.41v2.408h-1.088v-6.996ZM53.548 59.848c0 .97-.839 1.42-1.858 1.42-1 0-1.9-.59-1.9-1.69h1.06c0 .61.38.83.9.83.43 0 .758-.14.758-.54 0-.44-.469-.47-1.449-.85-.648-.25-1.108-.489-1.108-1.299 0-.88.8-1.35 1.748-1.35.99 0 1.78.67 1.78 1.58h-1.06c0-.44-.22-.72-.75-.72-.37 0-.668.18-.668.51 0 .4.428.45 1.279.78.648.25 1.268.48 1.268 1.33M57.756 58.19c-.06-.51-.36-.85-1.1-.85-.839 0-1.249.69-1.249 1.478 0 .8.38 1.48 1.32 1.48.639 0 .899-.28 1.039-.75h1.09c-.15.97-.86 1.72-2.209 1.72-1.519 0-2.329-1.18-2.329-2.45 0-1.259.81-2.448 2.318-2.448 1.52 0 2.14.92 2.209 1.82h-1.089ZM59.922 54.151h1.089v2.988c.29-.5.83-.769 1.52-.769.669 0 1.139.24 1.398.63.23.349.3.739.3 1.379v2.768h-1.09v-2.408c0-.8-.23-1.41-1.009-1.41-.76 0-1.12.61-1.12 1.41v2.408h-1.088v-6.996ZM69.773 56.49v4.657h-1.09v-.65c-.289.5-.829.77-1.519.77-.669 0-1.139-.24-1.399-.63-.23-.35-.3-.74-.3-1.378v-2.77h1.09v2.409c0 .8.23 1.409 1.01 1.409.76 0 1.118-.61 1.118-1.41V56.49h1.09ZM71.135 61.147h1.089v-6.996h-1.089zM74.383 58.339h2.319c0-.71-.47-1.15-1.13-1.15-.668 0-1.19.39-1.19 1.15Zm0 .81c.05.669.34 1.209 1.25 1.209.619 0 .859-.28.989-.61h1.1c-.13.8-.9 1.52-2.09 1.52-1.568 0-2.328-1.08-2.328-2.45 0-1.398.83-2.448 2.299-2.448 1.209 0 2.159.909 2.159 2.099 0 .16 0 .38-.051.68h-3.328ZM83.972 55.13c-.15-.04-.31-.07-.48-.07-.34 0-.74 0-.74.73v.7h1.22v.91h-1.22v3.748h-1.09V57.4h-.948v-.91h.949v-.58c0-1.78 1.14-1.818 1.68-1.818.279 0 .51.06.629.119v.92ZM88.03 54.2a.805.805 0 1 1 .01 1.608.805.805 0 0 1-.01-1.607Zm-2.29 0a.805.805 0 1 1 .01 1.608.805.805 0 0 1-.01-1.607Zm3.288 6.947h-1.09v-.65c-.289.5-.829.77-1.518.77-.67 0-1.14-.24-1.4-.63-.229-.35-.3-.74-.3-1.378v-2.77h1.09v2.409c0 .8.23 1.409 1.01 1.409.76 0 1.118-.61 1.118-1.41V56.49h1.09v4.657ZM93.349 57.499a1.62 1.62 0 0 0-.43-.05c-.93 0-1.44.53-1.44 1.69v2.008h-1.088V56.49h1.089v.749c.21-.43.82-.81 1.439-.81.17 0 .31.02.43.07v1ZM100.569 57.64h3.328v1.028h-.77c-.31 1.57-1.47 2.65-3.408 2.65-2.29 0-3.597-1.77-3.597-3.669 0-1.9 1.388-3.668 3.597-3.668 1.65 0 2.869 1.03 2.979 2.268h-1.16c-.12-.689-.85-1.239-1.82-1.239-1.499 0-2.419 1.27-2.419 2.64 0 1.368.84 2.637 2.57 2.637 1.189 0 1.898-.759 2.038-1.619h-1.338V57.64ZM105.653 58.339h2.32c0-.71-.47-1.15-1.13-1.15-.669 0-1.19.39-1.19 1.15Zm0 .81c.051.669.34 1.209 1.25 1.209.62 0 .86-.28.99-.61h1.1c-.13.8-.9 1.52-2.09 1.52-1.569 0-2.329-1.08-2.329-2.45 0-1.398.83-2.448 2.3-2.448 1.209 0 2.159.909 2.159 2.099 0 .16 0 .38-.052.68h-3.328ZM113.581 59.848c0 .97-.839 1.42-1.858 1.42-1 0-1.9-.59-1.9-1.69h1.06c0 .61.38.83.9.83.43 0 .76-.14.76-.54 0-.44-.47-.47-1.45-.85-.65-.25-1.11-.489-1.11-1.299 0-.88.8-1.35 1.75-1.35.99 0 1.78.67 1.78 1.58h-1.06c0-.44-.22-.72-.75-.72-.37 0-.67.18-.67.51 0 .4.43.45 1.28.78.65.25 1.268.48 1.268 1.33M117.303 61.147c-.17.03-.49.06-.81.06-.53 0-1.51-.07-1.51-1.639V57.4h-.788v-.909h.789v-1.409h1.09v1.41h1.069v.908h-1.07v1.92c0 .808.25.908.68.908.17 0 .44-.019.55-.039v.96ZM121.625 58.818c0-.799-.539-1.479-1.379-1.479-.819 0-1.359.68-1.359 1.479 0 .8.54 1.479 1.36 1.479.84 0 1.378-.679 1.378-1.479Zm1.09-2.328v4.657h-1.09v-.63c-.289.47-.899.75-1.438.75-1.42 0-2.389-1.13-2.389-2.449s.97-2.448 2.39-2.448c.538 0 1.148.28 1.437.75v-.63h1.09ZM124.077 61.147h1.089v-6.996h-1.089zM129.112 61.147c-.17.03-.489.06-.81.06-.529 0-1.508-.07-1.508-1.639V57.4h-.79v-.909h.79v-1.409h1.09v1.41h1.068v.908h-1.069v1.92c0 .808.25.908.68.908.17 0 .44-.019.55-.039v.96ZM134.171 56.49v4.657h-1.089v-.65c-.29.5-.83.77-1.519.77-.67 0-1.14-.24-1.4-.63-.229-.35-.3-.74-.3-1.378v-2.77h1.09v2.409c0 .8.23 1.409 1.009 1.409.76 0 1.12-.61 1.12-1.41V56.49h1.089ZM135.533 56.49h1.09v.649c.29-.5.83-.77 1.518-.77.67 0 1.14.24 1.4.63.23.35.3.74.3 1.38v2.768h-1.089v-2.408c0-.8-.23-1.41-1.01-1.41-.76 0-1.119.61-1.119 1.41v2.408h-1.09V56.49ZM141.93 58.818c0 .8.54 1.479 1.359 1.479.84 0 1.38-.679 1.38-1.479 0-.799-.54-1.479-1.38-1.479-.82 0-1.36.68-1.36 1.479Zm3.849 2.559c0 .78-.241 1.339-.67 1.699-.43.36-1.05.53-1.83.53s-1.35-.24-1.74-.6a1.955 1.955 0 0 1-.618-1.33h1.1c.059.5.459.951 1.249.951.869 0 1.399-.371 1.399-1.25v-.86c-.29.47-.9.75-1.44.75-1.418 0-2.388-1.13-2.388-2.449s.97-2.448 2.389-2.448c.54 0 1.149.28 1.439.75v-.63h1.089l.02 4.887ZM3.532 72.647h-.81L.304 65.651h1.209l1.62 5.087 1.608-5.087h1.21zM9.731 70.318c0-.799-.54-1.479-1.379-1.479-.82 0-1.359.68-1.359 1.479 0 .8.54 1.479 1.36 1.479.838 0 1.378-.679 1.378-1.479m-3.828 0c0-1.319.97-2.448 2.45-2.448 1.498 0 2.467 1.129 2.467 2.448s-.969 2.449-2.468 2.449c-1.479 0-2.449-1.13-2.449-2.449M15.013 69.69c-.06-.51-.36-.85-1.1-.85-.839 0-1.249.69-1.249 1.478 0 .8.38 1.48 1.32 1.48.64 0 .9-.28 1.04-.75h1.09c-.15.97-.86 1.72-2.21 1.72-1.519 0-2.329-1.18-2.329-2.45 0-1.259.81-2.448 2.32-2.448 1.518 0 2.138.92 2.207 1.82h-1.089ZM20.672 70.318c0-.799-.54-1.479-1.379-1.479-.82 0-1.359.68-1.359 1.479 0 .8.539 1.479 1.359 1.479.839 0 1.379-.679 1.379-1.479Zm1.089-2.328v4.657h-1.089v-.63c-.29.47-.899.75-1.439.75-1.419 0-2.389-1.13-2.389-2.449s.97-2.448 2.389-2.448c.54 0 1.149.28 1.439.75v-.63h1.089ZM25.703 72.647c-.17.03-.49.06-.81.06-.53 0-1.51-.07-1.51-1.639V68.9h-.788v-.909h.789v-1.409h1.09v1.41h1.069v.908h-1.07v1.92c0 .808.25.908.68.908.17 0 .44-.019.55-.039v.96ZM26.528 72.647h1.089V67.99h-1.089v4.657Zm.54-7.166a.804.804 0 1 1 .011 1.61.804.804 0 0 1-.011-1.61ZM32.456 70.318c0-.799-.54-1.479-1.38-1.479-.82 0-1.358.68-1.358 1.479 0 .8.539 1.479 1.359 1.479.839 0 1.379-.679 1.379-1.479m-3.828 0c0-1.319.97-2.448 2.449-2.448 1.499 0 2.468 1.129 2.468 2.448s-.97 2.449-2.468 2.449c-1.48 0-2.45-1.13-2.45-2.449M34.602 67.99h1.089v.649c.29-.5.83-.77 1.52-.77.669 0 1.139.24 1.399.63.23.35.3.74.3 1.38v2.768h-1.09v-2.408c0-.8-.23-1.41-1.01-1.41-.76 0-1.12.61-1.12 1.41v2.408h-1.088V67.99ZM43.737 70.318c0-.799-.54-1.479-1.379-1.479-.82 0-1.359.68-1.359 1.479 0 .8.539 1.479 1.359 1.479.839 0 1.379-.679 1.379-1.479Zm1.089-2.328v4.657h-1.089v-.63c-.29.47-.899.75-1.439.75-1.419 0-2.389-1.13-2.389-2.449s.97-2.448 2.389-2.448c.54 0 1.149.28 1.439.75v-.63h1.089ZM46.189 72.647h1.089v-6.996h-1.089zM51.879 70.358c0 .91.569 1.43 1.359 1.43.64 0 1.149-.41 1.149-1.04 0-.709-.63-.94-1.11-1.11C52 69.19 50.97 68.8 50.97 67.4c0-1.159 1-1.919 2.169-1.919 1.26 0 2.229.89 2.229 2.19h-1.15c0-.69-.4-1.16-1.05-1.16-.57 0-1.048.3-1.048.89 0 .568.499.84 1.019 1.028 1.09.39 2.399.85 2.399 2.19 0 1.438-1.1 2.198-2.4 2.198-1.268 0-2.407-.89-2.407-2.459h1.149ZM59.818 69.69c-.06-.51-.36-.85-1.1-.85-.839 0-1.249.69-1.249 1.478 0 .8.38 1.48 1.32 1.48.639 0 .899-.28 1.039-.75h1.09c-.15.97-.86 1.72-2.209 1.72-1.519 0-2.329-1.18-2.329-2.45 0-1.259.81-2.448 2.319-2.448 1.519 0 2.139.92 2.208 1.82h-1.089ZM61.983 65.651h1.09v2.988c.29-.5.83-.769 1.52-.769.668 0 1.138.24 1.398.63.23.349.3.739.3 1.379v2.768h-1.09v-2.408c0-.8-.23-1.41-1.008-1.41-.76 0-1.12.61-1.12 1.41v2.408h-1.09v-6.996ZM71.118 70.318c0-.799-.54-1.479-1.379-1.479-.82 0-1.359.68-1.359 1.479 0 .8.54 1.479 1.36 1.479.838 0 1.378-.679 1.378-1.479m-3.828 0c0-1.319.97-2.448 2.45-2.448 1.498 0 2.467 1.129 2.467 2.448s-.969 2.449-2.468 2.449c-1.479 0-2.449-1.13-2.449-2.449M76.778 70.318c0-.799-.538-1.479-1.379-1.479-.819 0-1.359.68-1.359 1.479 0 .8.54 1.479 1.36 1.479.84 0 1.378-.679 1.378-1.479m-3.827 0c0-1.319.97-2.448 2.449-2.448 1.498 0 2.468 1.129 2.468 2.448s-.97 2.449-2.468 2.449c-1.48 0-2.449-1.13-2.449-2.449M78.935 72.647h1.09v-6.996h-1.09zM87.263 70.318c0-.799-.54-1.479-1.38-1.479-.82 0-1.358.68-1.358 1.479 0 .8.539 1.479 1.359 1.479.839 0 1.379-.679 1.379-1.479m-3.828 0c0-1.319.97-2.448 2.449-2.448 1.499 0 2.468 1.129 2.468 2.448s-.97 2.449-2.468 2.449c-1.48 0-2.45-1.13-2.45-2.449M92.107 66.63c-.15-.04-.31-.07-.48-.07-.34 0-.74 0-.74.73v.7h1.22v.91h-1.22v3.747h-1.09V68.9h-.95v-.91h.95v-.58c0-1.779 1.14-1.818 1.68-1.818.28 0 .51.06.63.12v.92ZM97.397 67.56l-.97 3.168h1.929l-.96-3.168Zm1.609 5.087-.3-.89h-2.628l-.3.89h-1.21l2.419-6.996h.809l2.419 6.996h-1.21ZM102.077 70.318c0 .8.54 1.479 1.38 1.479.818 0 1.358-.679 1.358-1.479 0-.799-.54-1.479-1.359-1.479-.839 0-1.379.68-1.379 1.479Zm0-1.698c.29-.47.9-.75 1.44-.75 1.418 0 2.388 1.129 2.388 2.448s-.97 2.449-2.389 2.449c-.54 0-1.149-.28-1.439-.75v2.969h-1.09V67.99h1.09v.63ZM108.05 70.318c0 .8.54 1.479 1.379 1.479.819 0 1.359-.679 1.359-1.479 0-.799-.54-1.479-1.36-1.479-.838 0-1.378.68-1.378 1.479Zm0-1.698c.29-.47.899-.75 1.439-.75 1.419 0 2.389 1.129 2.389 2.448s-.97 2.449-2.39 2.449c-.54 0-1.148-.28-1.438-.75v2.969h-1.09V67.99h1.09v.63ZM112.944 72.647h1.09v-6.996h-1.09zM115.395 72.647h1.089V67.99h-1.089v4.657Zm.54-7.166a.805.805 0 1 1 .006 1.61.805.805 0 0 1-.006-1.61ZM118.612 69.838h2.319c0-.709-.47-1.148-1.13-1.148-.669 0-1.19.389-1.19 1.148Zm0 .81c.05.67.34 1.21 1.25 1.21.619 0 .859-.28.989-.61h1.1c-.13.8-.9 1.52-2.09 1.52-1.569 0-2.329-1.08-2.329-2.45 0-1.398.83-2.448 2.3-2.448 1.209 0 2.159.908 2.159 2.099 0 .16 0 .38-.052.68h-3.327ZM126.62 70.318c0-.799-.54-1.479-1.38-1.479-.82 0-1.359.68-1.359 1.479 0 .8.54 1.479 1.36 1.479.838 0 1.378-.679 1.378-1.479Zm0 1.699c-.29.47-.9.75-1.44.75-1.419 0-2.389-1.13-2.389-2.449s.97-2.448 2.39-2.448c.54 0 1.148.28 1.438.75v-2.969h1.09v6.996h-1.09v-.63ZM133.6 67.56l-.97 3.168h1.93l-.96-3.168Zm1.609 5.087-.3-.89h-2.628l-.3.89h-1.21l2.419-6.996h.809l2.419 6.996h-1.21ZM140.149 68.999a1.62 1.62 0 0 0-.43-.05c-.928 0-1.438.53-1.438 1.69v2.008h-1.09V67.99h1.09v.749c.21-.43.819-.81 1.438-.81.17 0 .31.02.43.07v1ZM143.754 72.647c-.17.03-.49.06-.81.06-.53 0-1.509-.07-1.509-1.639V68.9h-.789v-.909h.789v-1.409h1.09v1.41h1.069v.908h-1.069v1.92c0 .808.25.908.679.908.17 0 .44-.019.55-.039v.96ZM148.117 71.348c0 .97-.84 1.42-1.859 1.42-.999 0-1.9-.59-1.9-1.69h1.06c0 .61.38.83.9.83.43 0 .76-.14.76-.54 0-.44-.47-.47-1.45-.85-.65-.25-1.11-.489-1.11-1.299 0-.88.8-1.35 1.75-1.35.99 0 1.78.67 1.78 1.58h-1.06c0-.44-.22-.72-.75-.72-.37 0-.67.18-.67.51 0 .4.43.45 1.28.78.65.25 1.27.48 1.27 1.33M12.394 15.343c0-2.37-1.677-3.864-4.12-3.864-2.332 0-4.191 1.349-4.191 3.864h8.31Zm-4.01-7.181c4.41 0 7.874 3.317 7.874 7.655 0 .583 0 1.348-.183 2.478H4.047c0 2.443 1.276 4.41 4.446 4.41 2.26 0 3.099-1.02 3.61-2.222h4.009c-.583 2.916-3.244 5.54-7.62 5.54-5.685 0-8.492-4.301-8.492-8.93 0-5.103 3.026-8.931 8.384-8.931ZM19.711 25.585h3.973V8.599h-3.973v16.986ZM21.681 0a2.654 2.654 0 0 1 2.666 2.666c0 1.447-1.185 2.632-2.666 2.632a2.64 2.64 0 0 1-2.633-2.632C19.048 1.184 20.233 0 21.681 0ZM28.014 25.586V.07h3.973v16.038L38.22 8.6h4.958l-7.072 8.493 7.072 8.493H38.22l-6.233-7.473v7.473z"/><path d="M51.902 22.488c3.025 0 5.03-2.48 5.03-5.395 0-2.916-2.005-5.395-5.03-5.395-3.025 0-4.958 2.479-4.958 5.395 0 2.916 1.933 5.395 4.958 5.395m0-14.325c5.431 0 9.004 4.118 9.004 8.93 0 4.812-3.573 8.93-9.004 8.93-5.395 0-8.93-4.118-8.93-8.93 0-4.812 3.535-8.93 8.93-8.93M63.816 25.586V8.6h3.973v2.369c1.057-1.86 3.026-2.807 5.541-2.807 2.479 0 4.119.875 5.103 2.297.839 1.275 1.094 2.697 1.094 5.03v10.097h-3.973V16.8c0-2.916-.875-5.14-3.682-5.14-2.77 0-4.083 2.224-4.083 5.14v8.785h-3.973ZM34.912 28.319H.586v1.822h35.18zM37.409 28.319l.854 1.822h41.643v-1.822z" fill="#fff" mask="url(#b)"/></g></svg>
